<svg width="88.424mm" height="9.6626mm" version="1.1" viewBox="0 0 88.424 9.6626" xmlns="http://www.w3.org/2000/svg" xmlns:xlink="http://www.w3.org/1999/xlink">
 <defs>
  <linearGradient id="linearGradient410" x1="79.28" x2="412.96" y1="235.39" y2="233.47" gradientUnits="userSpaceOnUse">
   <stop stop-color="#06f" offset="0"/>
   <stop stop-color="#00d4aa" offset="1"/>
  </linearGradient>
 </defs>
 <g transform="translate(-20.791 -58.168)">
  <g transform="scale(.26458)" fill="url(#linearGradient410)" style="shape-inside:url(#rect186);white-space:pre" aria-label="antonyholmes.dev">
   <path d="m93.902 249.79q-0.88 0-1.34-0.24-0.44-0.24-0.74-1l-0.44-1.14q-0.78 0.66-1.5 1.16t-1.5 0.86q-0.76 0.34-1.64 0.5-0.86 0.18-1.92 0.18-1.42 0-2.58-0.36-1.16-0.38-1.98-1.1-0.8-0.72-1.24-1.78-0.44-1.08-0.44-2.48 0-1.1 0.56-2.26t1.94-2.1q1.38-0.96 3.72-1.6t5.9-0.72v-0.88q0-1.82-0.76-2.62-0.74-0.82-2.12-0.82-1.1 0-1.8 0.24t-1.26 0.54q-0.54 0.3-1.06 0.54t-1.24 0.24q-0.64 0-1.1-0.3-0.44-0.32-0.7-0.78l-1.12-1.94q1.88-1.66 4.16-2.46 2.3-0.82 4.92-0.82 1.88 0 3.38 0.62 1.52 0.6 2.56 1.7 1.06 1.08 1.62 2.58t0.56 3.28v12.96zm-7.12-3.78q1.2 0 2.1-0.42t1.82-1.36v-2.88q-1.86 0.08-3.06 0.32t-1.9 0.6-0.98 0.82q-0.26 0.46-0.26 1 0 1.06 0.58 1.5 0.58 0.42 1.7 0.42z"/>
   <path d="m101.14 249.79v-20.74h3.84q0.58 0 0.96 0.26 0.4 0.26 0.56 0.78l0.36 1.2q0.6-0.56 1.24-1.04t1.36-0.8q0.74-0.34 1.58-0.52 0.86-0.2 1.86-0.2 1.7 0 3 0.6 1.32 0.58 2.22 1.64 0.9 1.04 1.36 2.5 0.46 1.44 0.46 3.14v13.18h-6.2v-13.18q0-1.52-0.7-2.36-0.7-0.86-2.06-0.86-1.02 0-1.92 0.44t-1.72 1.18v14.78z"/>
   <path d="m131.62 250.11q-1.48 0-2.62-0.42-1.12-0.44-1.9-1.22-0.76-0.8-1.16-1.92t-0.4-2.5v-10.72h-1.76q-0.48 0-0.82-0.3-0.34-0.32-0.34-0.92v-2.42l3.3-0.64 1.22-5.06q0.24-0.96 1.36-0.96h3.24v6.06h5.04v4.24h-5.04v10.3q0 0.72 0.34 1.2 0.36 0.46 1.02 0.46 0.34 0 0.56-0.06 0.24-0.08 0.4-0.16 0.18-0.1 0.32-0.16 0.16-0.08 0.36-0.08 0.28 0 0.44 0.14 0.18 0.12 0.36 0.4l1.88 2.94q-1.2 0.9-2.7 1.36-1.5 0.44-3.1 0.44z"/>
   <path d="m149.58 228.73q2.36 0 4.3 0.74t3.32 2.12q1.4 1.38 2.16 3.36 0.78 1.96 0.78 4.42 0 2.48-0.78 4.48-0.76 1.98-2.16 3.38-1.38 1.38-3.32 2.14-1.94 0.74-4.3 0.74-2.38 0-4.34-0.74-1.94-0.76-3.36-2.14-1.4-1.4-2.18-3.38-0.76-2-0.76-4.48 0-2.46 0.76-4.42 0.78-1.98 2.18-3.36 1.42-1.38 3.36-2.12 1.96-0.74 4.34-0.74zm0 16.78q2.14 0 3.14-1.5 1.02-1.52 1.02-4.6t-1.02-4.58q-1-1.5-3.14-1.5-2.2 0-3.22 1.5t-1.02 4.58 1.02 4.6q1.02 1.5 3.22 1.5z"/>
   <path d="m163.54 249.79v-20.74h3.84q0.58 0 0.96 0.26 0.4 0.26 0.56 0.78l0.36 1.2q0.6-0.56 1.24-1.04t1.36-0.8q0.74-0.34 1.58-0.52 0.86-0.2 1.86-0.2 1.7 0 3 0.6 1.32 0.58 2.22 1.64 0.9 1.04 1.36 2.5 0.46 1.44 0.46 3.14v13.18h-6.2v-13.18q0-1.52-0.7-2.36-0.7-0.86-2.06-0.86-1.02 0-1.92 0.44t-1.72 1.18v14.78z"/>
   <path d="m194.42 255.17q-0.28 0.62-0.68 0.9-0.4 0.3-1.28 0.3h-4.64l4-8.4-8.28-18.92h5.48q0.72 0 1.12 0.32t0.56 0.76l3.4 8.94q0.48 1.24 0.78 2.48 0.2-0.64 0.44-1.26t0.46-1.26l3.08-8.9q0.16-0.46 0.62-0.76 0.48-0.32 1.02-0.32h5z"/>
   <path d="m208.06 249.79v-29.94h6.2v11.02q1.12-0.96 2.42-1.54 1.32-0.6 3.14-0.6 1.7 0 3 0.6 1.32 0.58 2.22 1.64 0.9 1.04 1.36 2.5 0.46 1.44 0.46 3.14v13.18h-6.2v-13.18q0-1.52-0.7-2.36-0.7-0.86-2.06-0.86-1.02 0-1.92 0.44t-1.72 1.18v14.78z"/>
   <path d="m240.5 228.73q2.36 0 4.3 0.74t3.32 2.12q1.4 1.38 2.16 3.36 0.78 1.96 0.78 4.42 0 2.48-0.78 4.48-0.76 1.98-2.16 3.38-1.38 1.38-3.32 2.14-1.94 0.74-4.3 0.74-2.38 0-4.34-0.74-1.94-0.76-3.36-2.14-1.4-1.4-2.18-3.38-0.76-2-0.76-4.48 0-2.46 0.76-4.42 0.78-1.98 2.18-3.36 1.42-1.38 3.36-2.12 1.96-0.74 4.34-0.74zm0 16.78q2.14 0 3.14-1.5 1.02-1.52 1.02-4.6t-1.02-4.58q-1-1.5-3.14-1.5-2.2 0-3.22 1.5t-1.02 4.58 1.02 4.6q1.02 1.5 3.22 1.5z"/>
   <path d="m260.86 219.85v29.94h-6.2v-29.94z"/>
   <path d="m265.86 249.79v-20.74h3.84q0.58 0 0.96 0.26 0.4 0.26 0.56 0.78l0.34 1.12q0.52-0.54 1.08-0.98 0.56-0.46 1.2-0.78 0.66-0.34 1.4-0.52 0.76-0.2 1.66-0.2 1.88 0 3.1 0.98 1.24 0.96 1.88 2.58 0.52-0.96 1.26-1.64 0.76-0.68 1.62-1.1 0.88-0.42 1.84-0.62 0.98-0.2 1.94-0.2 1.78 0 3.16 0.54 1.38 0.52 2.3 1.54 0.94 1 1.42 2.48 0.48 1.46 0.48 3.32v13.18h-6.2v-13.18q0-3.22-2.76-3.22-1.26 0-2.1 0.84-0.82 0.82-0.82 2.38v13.18h-6.2v-13.18q0-1.78-0.7-2.5t-2.06-0.72q-0.84 0-1.6 0.38-0.74 0.38-1.4 1.02v15z"/>
   <path d="m309.18 228.73q2.06 0 3.76 0.64 1.72 0.64 2.94 1.86 1.24 1.22 1.92 3 0.7 1.76 0.7 4 0 0.7-0.06 1.14t-0.22 0.7-0.44 0.36q-0.26 0.1-0.68 0.1h-11.96q0.3 2.6 1.58 3.78 1.28 1.16 3.3 1.16 1.08 0 1.86-0.26t1.38-0.58q0.62-0.32 1.12-0.58 0.52-0.26 1.08-0.26 0.74 0 1.12 0.54l1.8 2.22q-0.96 1.1-2.08 1.8-1.1 0.68-2.28 1.08-1.16 0.38-2.34 0.52-1.16 0.16-2.22 0.16-2.18 0-4.1-0.7-1.9-0.72-3.34-2.12-1.42-1.4-2.26-3.48-0.82-2.08-0.82-4.84 0-2.08 0.7-3.94 0.72-1.86 2.04-3.26 1.34-1.4 3.22-2.22 1.9-0.82 4.28-0.82zm0.12 4.28q-1.78 0-2.78 1.02-1 1-1.32 2.9h7.74q0-0.74-0.2-1.44-0.18-0.7-0.62-1.24-0.42-0.56-1.12-0.9t-1.7-0.34z"/>
   <path d="m334.74 233.59q-0.24 0.38-0.52 0.54-0.26 0.16-0.68 0.16-0.44 0-0.88-0.18-0.44-0.2-0.96-0.42-0.5-0.22-1.14-0.4-0.64-0.2-1.46-0.2-1.18 0-1.82 0.46-0.62 0.44-0.62 1.24 0 0.58 0.4 0.96 0.42 0.38 1.1 0.68 0.68 0.28 1.54 0.54t1.76 0.58 1.76 0.76q0.86 0.42 1.54 1.06 0.68 0.62 1.08 1.52 0.42 0.9 0.42 2.16 0 1.54-0.56 2.84t-1.68 2.24q-1.1 0.94-2.74 1.46-1.62 0.52-3.74 0.52-1.06 0-2.12-0.2t-2.06-0.54q-0.98-0.34-1.82-0.8-0.84-0.48-1.44-1.02l1.44-2.28q0.26-0.4 0.62-0.62 0.36-0.24 0.94-0.24 0.54 0 0.96 0.24 0.44 0.24 0.94 0.52t1.16 0.52q0.68 0.24 1.7 0.24 0.72 0 1.22-0.14 0.5-0.16 0.8-0.42t0.44-0.58 0.14-0.66q0-0.62-0.42-1.02t-1.1-0.68q-0.68-0.3-1.56-0.54-0.86-0.26-1.76-0.58t-1.78-0.76q-0.86-0.46-1.54-1.14-0.68-0.7-1.1-1.7t-0.42-2.42q0-1.32 0.5-2.5 0.52-1.2 1.54-2.1t2.56-1.42q1.54-0.54 3.6-0.54 1.12 0 2.16 0.2 1.06 0.2 1.98 0.56t1.68 0.86q0.76 0.48 1.34 1.06z"/>
   <path d="m338.46 246.65q0-0.72 0.26-1.34 0.28-0.62 0.74-1.08 0.48-0.46 1.12-0.72 0.64-0.28 1.4-0.28 0.74 0 1.38 0.28 0.64 0.26 1.12 0.72t0.74 1.08q0.28 0.62 0.28 1.34t-0.28 1.36q-0.26 0.62-0.74 1.08t-1.12 0.72-1.38 0.26q-0.76 0-1.4-0.26t-1.12-0.72q-0.46-0.46-0.74-1.08-0.26-0.64-0.26-1.36z"/>
   <path d="m363.66 249.79q-0.58 0-0.98-0.26-0.38-0.26-0.54-0.78l-0.48-1.58q-0.62 0.66-1.3 1.2t-1.48 0.94q-0.78 0.38-1.7 0.58-0.9 0.22-1.96 0.22-1.62 0-3-0.72t-2.38-2.08-1.58-3.32q-0.56-1.98-0.56-4.5 0-2.32 0.64-4.3 0.64-2 1.8-3.44 1.18-1.46 2.82-2.28t3.62-0.82q1.6 0 2.7 0.48 1.12 0.46 2.02 1.22v-10.5h6.2v29.94zm-6.28-4.44q0.68 0 1.22-0.12 0.56-0.14 1.02-0.38t0.86-0.6q0.42-0.36 0.82-0.84v-8.8q-0.72-0.78-1.54-1.08-0.8-0.32-1.7-0.32-0.86 0-1.58 0.34t-1.26 1.1q-0.52 0.74-0.82 1.94t-0.3 2.9q0 1.64 0.24 2.76t0.66 1.82q0.44 0.68 1.04 0.98t1.34 0.3z"/>
   <path d="m381.18 228.73q2.06 0 3.76 0.64 1.72 0.64 2.94 1.86 1.24 1.22 1.92 3 0.7 1.76 0.7 4 0 0.7-0.06 1.14t-0.22 0.7-0.44 0.36q-0.26 0.1-0.68 0.1h-11.96q0.3 2.6 1.58 3.78 1.28 1.16 3.3 1.16 1.08 0 1.86-0.26t1.38-0.58q0.62-0.32 1.12-0.58 0.52-0.26 1.08-0.26 0.74 0 1.12 0.54l1.8 2.22q-0.96 1.1-2.08 1.8-1.1 0.68-2.28 1.08-1.16 0.38-2.34 0.52-1.16 0.16-2.22 0.16-2.18 0-4.1-0.7-1.9-0.72-3.34-2.12-1.42-1.4-2.26-3.48-0.82-2.08-0.82-4.84 0-2.08 0.7-3.94 0.72-1.86 2.04-3.26 1.34-1.4 3.22-2.22 1.9-0.82 4.28-0.82zm0.12 4.28q-1.78 0-2.78 1.02-1 1-1.32 2.9h7.74q0-0.74-0.2-1.44-0.18-0.7-0.62-1.24-0.42-0.56-1.12-0.9t-1.7-0.34z"/>
   <path d="m404.74 249.79h-5.64l-8.04-20.74h5.16q0.66 0 1.1 0.32 0.46 0.3 0.62 0.76l2.88 9.3q0.34 1.14 0.64 2.22 0.32 1.08 0.54 2.16 0.22-1.08 0.54-2.16t0.68-2.22l3-9.3q0.16-0.46 0.6-0.76 0.44-0.32 1.04-0.32h4.92z"/>
  </g>
 </g>
</svg>
